<?xml version="1.0" encoding="utf-8"?>
<!-- Generator: Adobe Illustrator 23.1.1, SVG Export Plug-In . SVG Version: 6.00 Build 0)  -->
<svg version="1.1" id="Capa_1" xmlns="http://www.w3.org/2000/svg" xmlns:xlink="http://www.w3.org/1999/xlink" x="0px" y="0px"
	 viewBox="0 0 279.2 50" style="enable-background:new 0 0 279.2 50;" xml:space="preserve">
<style type="text/css">
	.st0{fill:#B79F2F;}
</style>
<path class="st0" d="M19.9,14.6c0,2.9-2.4,5.3-5.4,5.3s-5.4-2.4-5.4-5.3s2.4-5.3,5.4-5.3C17.5,9.3,19.9,11.7,19.9,14.6"/>
<path d="M47.3,25.8c-2.2,1.6-5,2.4-8.5,2.4c-4.1,0-7.2-1.1-9.4-3.4c-2-2.1-3-4.8-3-8.2s1.1-6.2,3.4-8.4C32,6,34.9,4.9,38.5,4.9
	c3.5,0,6.3,0.7,8.3,2.1l-1,1.4c-0.7-0.7-1.6-1.4-2.9-1.8c-1.3-0.5-2.5-0.7-3.8-0.7c-2.6,0-4.7,1-6.3,3.1c-1.6,2-2.4,4.5-2.4,7.5
	s0.8,5.5,2.4,7.5c1.7,2.1,3.8,3.2,6.4,3.2c1.5,0,2.9-0.3,4.2-0.8c1.2-0.5,2.1-1.1,2.8-1.9L47.3,25.8z"/>
<path d="M67.5,27.8h-4.2L60,19h-7l-3.2,8.8H48l9.3-23.1h1L67.5,27.8z M59.6,17.9l-3-8.2l-3.1,8.2H59.6z"/>
<path d="M81.1,21.6c0,2.3-0.9,4.1-2.6,5.2c-1.3,0.8-2.7,1.2-4.3,1.2h-0.4c-2.6,0-4.7-0.9-6.3-2.6l1.1-1.2c1.2,1.8,2.8,2.7,4.8,2.7
	h0.1c1.1,0,2-0.4,2.7-1.1s1-1.7,1-2.8v-0.1c0-1.1-0.3-2-0.9-2.8c-0.5-0.7-1.5-1.6-3.1-2.8c-1.6-1.3-2.7-2.3-3.3-2.9
	c-0.9-1.1-1.3-2.2-1.3-3.4v-0.3C68.6,8.6,69.4,7,71,6c1.2-0.8,2.6-1.2,4.2-1.2h0.3c2.1,0,3.7,0.4,4.8,1.3l-0.8,1.3
	c-0.9-1.1-2.1-1.6-3.5-1.6h0c-1.1,0-1.9,0.4-2.6,1.1c-0.6,0.7-1,1.6-1,2.7v0.2c0,0.8,0.3,1.5,0.8,2.2s1.4,1.5,2.8,2.6
	c1.8,1.4,3,2.4,3.5,3.1c1.1,1.2,1.6,2.4,1.6,3.7C81.1,21.4,81.1,21.6,81.1,21.6z"/>
<path d="M102,27.8h-4.2L94.5,19h-6.9l-3.2,8.8h-1.8l9.2-23.1h1L102,27.8z M94.2,17.9l-3-8.2L88,17.9H94.2z"/>
<path d="M113.1,13.1c3.9,0,5.8,1.6,5.8,4.8c0,1.5-0.5,2.6-1.5,3.5s-2.4,1.4-4.3,1.4c-1.2,0-2.3-0.1-3.3-0.3v-9.1
	C111.2,13.2,112.2,13.1,113.1,13.1 M116.3,21.1c0.6-0.8,0.9-1.8,0.9-3.1c0-1.3-0.3-2.4-1-3.2c-0.7-0.9-1.7-1.3-3-1.3
	c-0.6,0-1.2,0.1-1.6,0.2v8.5c0.5,0.2,1.1,0.2,1.5,0.2C114.5,22.4,115.6,22,116.3,21.1"/>
<polygon points="124.8,22.8 120.7,22.8 120.7,13.2 124.5,13.2 124.5,13.6 122.3,13.6 122.3,17.5 124.3,17.5 124.3,17.9 122.3,17.9 
	122.3,22.3 124.8,22.3 "/>
<polygon points="132.5,22.8 128.4,22.8 128.4,13.2 130.1,13.2 130.1,22.3 132.5,22.3 "/>
<path d="M140.9,22.8h-1.8l-1.4-3.7h-2.9l-1.4,3.7h-0.8l3.9-9.8h0.4L140.9,22.8z M137.6,18.5l-1.3-3.5l-1.3,3.5H137.6z"/>
<path d="M146.7,20.1c0,1-0.4,1.7-1.1,2.2c-0.5,0.4-1.1,0.5-1.8,0.5h-0.1c-1.1,0-2-0.4-2.7-1.1l0.5-0.5c0.5,0.8,1.2,1.1,2,1.1h0.1
	c0.5,0,0.8-0.2,1.1-0.5s0.4-0.7,0.4-1.2v-0.1c0-0.4-0.1-0.9-0.4-1.2c-0.2-0.3-0.7-0.7-1.3-1.2c-0.7-0.5-1.1-1-1.4-1.2
	c-0.4-0.5-0.6-0.9-0.6-1.4v-0.1c0-0.9,0.3-1.6,1-2c0.5-0.3,1.1-0.5,1.8-0.5h0.1c0.9,0,1.6,0.2,2,0.6L146,14
	c-0.4-0.4-0.9-0.7-1.5-0.7l0,0c-0.5,0-0.8,0.2-1.1,0.5s-0.4,0.7-0.4,1.1V15c0,0.3,0.1,0.6,0.3,0.9s0.6,0.7,1.2,1.1
	c0.8,0.6,1.3,1,1.5,1.3c0.5,0.5,0.7,1,0.7,1.6V20.1z"/>
<polygon points="166.9,28 157.2,28 157.2,5.5 161.1,5.5 161.1,27.1 166.9,27.1 "/>
<path d="M190.3,8.5c2,2.1,3,4.9,3,8.3c0,3.3-1.1,6-3.2,8.2c-2.2,2.3-5.2,3.4-8.8,3.4c-4.1,0-7.3-1.1-9.6-3.3
	c-2.2-2.1-3.3-4.8-3.3-8.3c0-3.4,1.2-6.2,3.5-8.4c2.4-2.2,5.5-3.3,9.3-3.3C185.1,5.1,188.1,6.2,190.3,8.5 M189.1,24.1
	c1.8-2,2.7-4.4,2.7-7.4s-0.9-5.5-2.7-7.4c-1.8-2-4.2-3.1-7.1-3.1c-2.9,0-5.2,1-6.9,3s-2.6,4.5-2.6,7.5s0.9,5.5,2.6,7.5
	c1.7,2,4,3,6.9,3C185,27.1,187.3,26.1,189.1,24.1"/>
<polygon points="221.8,28 217.7,28 214,11.2 207.2,28 206.3,28 200,11.4 196.7,28 195,28 200.1,5.1 201.3,5.1 208.1,22.7 215.2,5.1 
	216.4,5.1 "/>
<path d="M242,28h-4.2l-3.3-8.8h-6.9l-3.2,8.8h-1.8l9.3-23.1h1L242,28z M234.2,18.1l-3-8.2l-3.1,8.2H234.2z"/>
<path d="M255.6,21.8c0,2.3-0.9,4-2.6,5.2c-1.3,0.8-2.7,1.3-4.3,1.3h-0.4c-2.6,0-4.7-0.9-6.3-2.6l1.1-1.2c1.2,1.8,2.8,2.7,4.7,2.7
	h0.1c1.1,0,2-0.4,2.7-1.1s1-1.7,1-2.8v-0.1c0-1.1-0.3-2-0.9-2.8c-0.5-0.7-1.5-1.6-3.1-2.8c-1.6-1.3-2.7-2.3-3.3-2.9
	c-0.9-1.1-1.3-2.2-1.3-3.4V11c0-2.1,0.8-3.7,2.4-4.7c1.2-0.8,2.6-1.2,4.2-1.2h0.3c2.1,0,3.6,0.4,4.8,1.3l-0.8,1.3
	c-0.9-1.1-2.1-1.6-3.5-1.6h-0.1c-1.1,0-1.9,0.4-2.6,1.1c-0.6,0.7-1,1.6-1,2.7v0.2c0,0.8,0.3,1.5,0.8,2.2s1.4,1.5,2.8,2.6
	c1.8,1.4,3,2.4,3.5,3.1c1.1,1.2,1.6,2.4,1.6,3.7v0.1H255.6z"/>
<polygon points="188.9,47.4 186.6,47.4 184.6,39.2 180.8,47.4 180.2,47.4 176.7,39.3 174.9,47.4 174,47.4 176.8,36.2 177.5,36.2 
	181.2,44.8 185.3,36.2 185.9,36.2 "/>
<path d="M202,47.4h-2.2v-0.8c-0.8,0.6-1.8,0.9-3.1,0.9c-0.9,0-1.6-0.2-2.1-0.7c-0.5-0.4-0.8-1-0.8-1.8v-8.7h2.2v8.4
	c0,1.4,0.6,2,1.9,2c0.7,0,1.3-0.2,1.9-0.7v-9.7h2.2L202,47.4L202,47.4z"/>
<polygon points="213.4,47.4 208,47.4 208,36.4 213.1,36.4 213.1,36.9 210.2,36.9 210.2,41.4 212.8,41.4 212.8,41.8 210.2,41.8 
	210.2,46.9 213.4,46.9 "/>
<path d="M224.3,44.4c0-0.8-0.3-1.4-0.9-1.9c-0.6-0.5-1.2-0.7-2.1-0.7h-0.7V47c0.5,0.1,0.8,0.1,1.1,0.1
	C223.5,47.1,224.3,46.2,224.3,44.4 M224.1,38.9c0-0.7-0.2-1.2-0.6-1.6c-0.4-0.4-1-0.6-1.8-0.6c-0.4,0-0.8,0-1,0.1v4.6h0.8
	c0.8,0,1.5-0.2,1.9-0.6C223.9,40.3,224.1,39.7,224.1,38.9 M226.5,44.4c0,2.1-1.7,3.1-5,3.1c-0.9,0-1.9-0.1-3-0.2V36.6
	c1.1-0.2,2.1-0.3,3.1-0.3c3.1,0,4.7,0.9,4.7,2.6c0,0.8-0.4,1.5-1.1,2c-0.7,0.4-1.5,0.7-2.6,0.7C225.2,41.7,226.5,42.7,226.5,44.4"/>
<polygon points="237.2,47.4 231.8,47.4 231.8,36.4 234,36.4 234,46.9 237.2,46.9 "/>
<polygon points="247.3,47.4 241.9,47.4 241.9,36.4 247,36.4 247,36.9 244.1,36.9 244.1,41.4 246.7,41.4 246.7,41.8 244.1,41.8 
	244.1,46.9 247.3,46.9 "/>
<path d="M258.6,44.4c0,1.1-0.5,2-1.4,2.5c-0.7,0.4-1.5,0.6-2.4,0.6h-0.2c-1.4,0-2.6-0.4-3.5-1.3l0.6-0.6c0.7,0.9,1.6,1.3,2.7,1.3
	h0.1c0.6,0,1.1-0.2,1.5-0.5c0.4-0.4,0.6-0.8,0.6-1.4l0,0c0-0.5-0.2-1-0.5-1.4c-0.3-0.3-0.9-0.8-1.7-1.4c-0.9-0.6-1.5-1.1-1.8-1.4
	c-0.5-0.5-0.8-1.1-0.8-1.6V39c0-1,0.4-1.8,1.3-2.3c0.7-0.4,1.5-0.6,2.4-0.6h0.2c1.1,0,2,0.2,2.7,0.6l-0.5,0.6
	c-0.5-0.5-1.2-0.8-2-0.8h-0.1c-0.6,0-1.1,0.2-1.4,0.5c-0.4,0.4-0.5,0.8-0.5,1.3v0.1c0,0.4,0.1,0.7,0.4,1.1c0.3,0.3,0.8,0.8,1.6,1.3
	c1,0.7,1.7,1.2,2,1.5c0.6,0.6,0.9,1.2,0.9,1.8v0.3H258.6z"/>
<path class="st0" d="M274.4,14.3c0,2.9-2.4,5.3-5.4,5.3s-5.4-2.4-5.4-5.3S266,9,269,9C272,8.9,274.4,11.3,274.4,14.3"/>
</svg>
